<svg height="70" viewBox="0 0 55 70" width="55" xmlns="http://www.w3.org/2000/svg"><g fill="#fff"><path d="m131.7 47.659a24.835 24.835 0 0 0 4.3 4.741 40.043 40.043 0 0 0 5.253 3.873 60.576 60.576 0 0 0 6.069 3.215l-.038-.039.152.039a19.6 19.6 0 0 1 -2.541-8.676 7.893 7.893 0 0 1 .93-3.737 11.793 11.793 0 0 1 2.427-3.157q1.5-1.394 3.319-2.788t3.642-3a30.976 30.976 0 0 0 3.319-3.409 14.49 14.49 0 0 0 2.428-4.357 16.219 16.219 0 0 0 .929-5.577 23.74 23.74 0 0 0 -1.043-7.127 21.841 21.841 0 0 0 -2.75-5.829 24.766 24.766 0 0 0 -4.305-4.744 39.985 39.985 0 0 0 -5.253-3.873 60.558 60.558 0 0 0 -6.069-3.214l.038.039-.114-.039a20.2 20.2 0 0 1 2.5 8.676 7.9 7.9 0 0 1 -.929 3.737 11.837 11.837 0 0 1 -2.427 3.157q-1.5 1.394-3.319 2.789t-3.642 3a30.992 30.992 0 0 0 -3.319 3.408 14.487 14.487 0 0 0 -2.427 4.357 16.219 16.219 0 0 0 -.93 5.576 23.717 23.717 0 0 0 1.042 7.127 21.83 21.83 0 0 0 2.758 5.832z" transform="translate(-117.395)"/><path d="m109.444 475.474a1.175 1.175 0 0 0 -.878-.389h-52.5a1.175 1.175 0 0 0 -.879.389 1.294 1.294 0 0 0 -.371.924v2.627a1.294 1.294 0 0 0 .371.924 1.172 1.172 0 0 0 .879.39h52.5a1.172 1.172 0 0 0 .878-.39 1.3 1.3 0 0 0 .371-.924v-2.625a1.292 1.292 0 0 0 -.371-.926z" transform="translate(-54.815 -410.338)"/></g></svg>