<svg height="13.539" viewBox="0 0 16 13.539" width="16" xmlns="http://www.w3.org/2000/svg"><path d="m365.446 366.986a1.533 1.533 0 1 0 .449-1.084 1.477 1.477 0 0 0 -.449 1.084z" transform="translate(-354.045 -354.98)"/><path d="m15.817 37.879a.609.609 0 0 0 -.433-.173h-11.547q-.01-.064-.043-.232t-.053-.268a1.536 1.536 0 0 0 -.072-.241.713.713 0 0 0 -.125-.223.621.621 0 0 0 -.466-.2h-2.462a.609.609 0 0 0 -.433.173.549.549 0 0 0 0 .818.609.609 0 0 0 .433.173h1.961l1.7 7.482q-.019.036-.2.345t-.284.541a.956.956 0 0 0 -.106.359.545.545 0 0 0 .183.409.61.61 0 0 0 .433.173h9.846a.61.61 0 0 0 .433-.173.549.549 0 0 0 0-.818.609.609 0 0 0 -.433-.173h-8.841a1.694 1.694 0 0 0 .231-.582.931.931 0 0 0 -.024-.2q-.024-.109-.058-.241t-.043-.2l10.039-1.109a.608.608 0 0 0 .394-.2.555.555 0 0 0 .153-.376v-4.654a.545.545 0 0 0 -.183-.41z" transform="translate(0 -36.543)"/><path d="m109.632 366.986a1.533 1.533 0 1 0 .449-1.084 1.476 1.476 0 0 0 -.449 1.084z" transform="translate(-106.105 -354.98)"/></svg>