<svg height="18.973" viewBox="0 0 24.148 18.973" width="24.148" xmlns="http://www.w3.org/2000/svg"><g fill="#fff"><path d="m2.318 60.668q.458.323 2.762 1.92t3.531 2.459q.135.095.573.411t.728.512q.29.2.7.438a4.066 4.066 0 0 0 .775.363 2.135 2.135 0 0 0 .674.121h.027a2.137 2.137 0 0 0 .674-.121 4.069 4.069 0 0 0 .775-.363q.411-.243.7-.438t.728-.512q.438-.317.573-.411l6.306-4.379a6.4 6.4 0 0 0 1.644-1.657 3.559 3.559 0 0 0 .66-2.034 2.174 2.174 0 0 0 -2.156-2.156h-19.836a1.924 1.924 0 0 0 -1.6.7 2.72 2.72 0 0 0 -.556 1.751 3.148 3.148 0 0 0 .741 1.839 6.689 6.689 0 0 0 1.577 1.557z" transform="translate(0 -54.82)"/><path d="m22.8 185.609q-4.419 2.991-6.71 4.649-.768.566-1.246.883a7.691 7.691 0 0 1 -1.273.647 3.877 3.877 0 0 1 -1.482.33h-.029a3.879 3.879 0 0 1 -1.482-.33 7.7 7.7 0 0 1 -1.273-.647q-.478-.316-1.246-.883-1.819-1.334-6.7-4.649a7.137 7.137 0 0 1 -1.359-1.172v10.7a2.076 2.076 0 0 0 .633 1.523 2.076 2.076 0 0 0 1.523.633h19.836a2.163 2.163 0 0 0 2.156-2.156v-10.7a7.43 7.43 0 0 1 -1.348 1.172z" transform="translate(0 -178.319)"/></g></svg>